<?xml version="1.0" encoding="UTF-8"?>
<svg id="Layer_2" data-name="Layer 2" xmlns="http://www.w3.org/2000/svg" viewBox="0 0 147.83 50.6">
  <g id="Layer_2-2" data-name="Layer 2">
    <g>
      <path d="M50.6,4.97V0H0v25.3h.66c13.61,0,24.65-11.03,24.65-24.65v24.65h4.97c11.23,0,20.33-9.1,20.33-20.33Z"/>
      <path d="M20.33,25.3C9.1,25.3,0,34.41,0,45.64v4.97h50.6v-25.3h-.66c-13.61,0-24.65,11.03-24.65,24.65v-24.65h-4.97Z"/>
    </g>
    <g>
      <path d="M87.96,31.1v-11c0-4.76-3.48-7.49-9.56-7.49-6.38,0-10.28,3.16-10.43,8.44v.49s4.59,0,4.59,0l.03-.44c.24-3.13,2.17-4.65,5.9-4.65,4.55,0,5.16,1.84,5.16,3.65,0,1.22-.45,1.88-2.99,2.33l-5.82.96c-4.96.82-7.37,3.22-7.37,7.35,0,4.4,3.08,7.13,8.04,7.13,4.64,0,7.01-2.32,8.19-4.32.05,1.07.14,2.15.28,3.3l.05.42h4.24l-.04-.52c-.19-2.31-.27-4.05-.27-5.65ZM83.65,24.82v1.11c0,3.73-1.95,8.1-7.45,8.1-1.22,0-4.06-.33-4.06-3.42,0-2.15,1.17-3.23,4.16-3.84l3.81-.78c1.44-.3,2.55-.61,3.55-1.16Z"/>
      <polygon points="114.82 13.39 109.43 13.39 102.93 22.1 96.43 13.39 90.76 13.39 100.03 25.23 90.58 37.27 95.92 37.27 102.79 28.22 109.66 37.27 115.29 37.27 105.65 25.14 114.82 13.39"/>
      <rect x="118.26" y="13.39" width="4.62" height="23.88"/>
      <rect x="118.26" y="5.89" width="4.62" height="4.62"/>
      <path d="M147.83,30.56c0,2.99-1.32,6.49-7.18,7.28-.78.1-1.65.16-2.61.16-2.85,0-4.97-.5-6.56-1.3-2.28-1.12-3.44-2.85-4.01-4.55-.35-1.06-.47-2.12-.49-3.01v-.48s4.31,0,4.31,0l.03.44c.26,3.47,2.49,5.15,6.82,5.15,4.57,0,5.16-1.88,5.16-3.51v-.14c0-.08,0-.15-.01-.22-.14-1.72-1.28-2.62-3.75-2.97l-5.32-.78c-.89-.12-1.71-.32-2.43-.6-2.74-1.03-4.22-3.12-4.22-6.06,0-4.32,3.17-7.01,8.55-7.33.3-.02.61-.03.92-.03h.18c.45.01.89.03,1.32.06.23.02.45.04.67.07.44.06.87.13,1.28.22.62.14,1.2.32,1.74.53.05.02.09.04.14.06.25.1.5.22.73.34.26.13.51.27.74.42.05.03.09.06.13.09.22.14.42.29.62.45.11.09.22.18.33.28.1.1.21.19.3.29.1.11.2.21.29.31.1.11.19.22.28.33.08.11.17.22.25.34.08.11.16.23.23.35.15.24.28.49.41.75.24.52.43,1.08.56,1.67.14.59.21,1.22.23,1.88v.49s-4.59,0-4.59,0l-.03-.44c-.25-3.13-2.17-4.65-5.9-4.65-.97,0-1.77.08-2.42.23-.01,0-.02,0-.04,0-2.33.57-2.7,2-2.7,3.41,0,1.07.34,1.71,2.11,2.15h.02c.39.16.86.28,1.44.36l3.49.49,1.75.29c3.09.51,5.2,1.64,6.33,3.41.08.12.15.23.2.35.47.96.7,2.09.7,3.41Z"/>
    </g>
  </g>
</svg>